<svg width="300" height="12" viewBox="0 0 300 12" fill="none" xmlns="http://www.w3.org/2000/svg">
<g clip-path="url(#clip0_2003_583)">
<rect width="134.5" height="1" transform="translate(0 5.5)" fill="#EAECF0"/>
</g>
<path d="M146.162 10.1172C144.16 10.1172 142.91 8.71582 142.91 6.47949V6.46973C142.91 4.23828 144.165 2.83691 146.162 2.83691C148.154 2.83691 149.404 4.23828 149.404 6.46973V6.47949C149.404 8.71582 148.159 10.1172 146.162 10.1172ZM146.162 9.30664C147.612 9.30664 148.506 8.19824 148.506 6.47949V6.46973C148.506 4.74121 147.598 3.64746 146.162 3.64746C144.722 3.64746 143.809 4.73633 143.809 6.46973V6.47949C143.809 8.21289 144.717 9.30664 146.162 9.30664ZM150.998 10V2.9541H153.64C154.997 2.9541 155.886 3.78418 155.886 5.05371V5.06348C155.886 6.04004 155.349 6.79688 154.47 7.0752L156.101 10H155.07L153.562 7.21191H151.877V10H150.998ZM151.877 6.43555H153.562C154.465 6.43555 154.978 5.94727 154.978 5.08301V5.07324C154.978 4.2334 154.426 3.73535 153.522 3.73535H151.877V6.43555Z" fill="#A0A9B4"/>
<g clip-path="url(#clip1_2003_583)">
<rect width="134.5" height="1" transform="translate(165.5 5.5)" fill="#EAECF0"/>
</g>
<defs>
<clipPath id="clip0_2003_583">
<rect width="134.5" height="1" fill="white" transform="translate(0 5.5)"/>
</clipPath>
<clipPath id="clip1_2003_583">
<rect width="134.5" height="1" fill="white" transform="translate(165.5 5.5)"/>
</clipPath>
</defs>
</svg>
