<svg width="10" height="10" viewBox="0 0 10 10" fill="none" xmlns="http://www.w3.org/2000/svg">
<g clip-path="url(#clip0_406_328)">
<path d="M5 10C4.0111 10 3.0444 9.70676 2.22215 9.15735C1.39991 8.60794 0.759043 7.82705 0.380605 6.91342C0.00216643 5.99979 -0.0968503 4.99446 0.0960758 4.02455C0.289002 3.05465 0.765206 2.16373 1.46447 1.46447C2.16373 0.765206 3.05465 0.289002 4.02455 0.0960758C4.99446 -0.0968503 5.99979 0.00216643 6.91342 0.380605C7.82705 0.759043 8.60794 1.39991 9.15735 2.22215C9.70676 3.0444 10 4.0111 10 5C9.99857 6.32564 9.47132 7.59658 8.53395 8.53395C7.59658 9.47132 6.32564 9.99857 5 10V10ZM5 1.25C4.25832 1.25 3.5333 1.46994 2.91661 1.88199C2.29993 2.29405 1.81928 2.87972 1.53545 3.56494C1.25163 4.25016 1.17736 5.00416 1.32206 5.73159C1.46675 6.45902 1.8239 7.12721 2.34835 7.65165C2.8728 8.1761 3.54098 8.53325 4.26841 8.67795C4.99584 8.82264 5.74984 8.74838 6.43507 8.46455C7.12029 8.18072 7.70596 7.70007 8.11801 7.08339C8.53007 6.46671 8.75 5.74168 8.75 5C8.74879 4.00581 8.35331 3.05269 7.65031 2.34969C6.94731 1.64669 5.99419 1.25122 5 1.25V1.25Z" fill="#374957"/>
<path d="M6.02301 7.78401H4.77301V5.22693H4.20468V3.97693H5.0001C5.27132 3.97715 5.53138 4.08499 5.72316 4.27678C5.91495 4.46856 6.02279 4.72862 6.02301 4.99984V7.78401Z" fill="#374957"/>
<path d="M5.11832 3.52765C5.5132 3.52765 5.83332 3.20754 5.83332 2.81265C5.83332 2.41777 5.5132 2.09766 5.11832 2.09766C4.72344 2.09766 4.40332 2.41777 4.40332 2.81265C4.40332 3.20754 4.72344 3.52765 5.11832 3.52765Z" fill="#374957"/>
</g>
<defs>
<clipPath id="clip0_406_328">
<rect width="10" height="10" fill="white"/>
</clipPath>
</defs>
</svg>
