<svg width="35" height="35" viewBox="0 0 35 35" fill="none" xmlns="http://www.w3.org/2000/svg">
<path d="M4.16399 8.32798C6.4637 8.32798 8.32798 6.4637 8.32798 4.16399C8.32798 1.86428 6.4637 0 4.16399 0C1.86428 0 0 1.86428 0 4.16399C0 6.4637 1.86428 8.32798 4.16399 8.32798Z" fill="white"/>
<path d="M12.1415 11.4053H19.0426V14.5667C19.0426 14.5667 20.9153 10.8213 26.0106 10.8213C30.5559 10.8213 34.3211 13.0604 34.3211 19.8854V34.2774H27.1697V21.6293C27.1697 17.6032 25.0202 17.1604 23.3823 17.1604C19.9831 17.1604 19.4012 20.0924 19.4012 22.1545V34.2774H12.1415V11.4053Z" fill="white"/>
<path d="M0.534137 11.4053H7.79385V34.2774H0.534137V11.4053Z" fill="white"/>
</svg>
