<svg width="338" height="61" viewBox="0 0 338 61" fill="none" xmlns="http://www.w3.org/2000/svg">
<rect width="338" height="61" fill="#1877F2"/>
<path d="M47.1113 30.5001C47.1113 24.1488 41.9626 19.0001 35.6113 19.0001C29.26 19.0001 24.1113 24.1488 24.1113 30.5001C24.1113 36.24 28.3167 40.9976 33.8145 41.8604V33.8243H30.8945V30.5001H33.8145V27.9665C33.8145 25.0843 35.5313 23.4922 38.1582 23.4922C39.4164 23.4922 40.7324 23.7169 40.7324 23.7169V26.5469H39.2823C37.8537 26.5469 37.4082 27.4334 37.4082 28.3428V30.5001H40.5977L40.0878 33.8243H37.4082V41.8604C42.9059 40.9976 47.1113 36.24 47.1113 30.5001Z" fill="white"/>
<path d="M72.1548 27.1378C72.098 26.5649 71.8542 26.1198 71.4233 25.8026C70.9924 25.4853 70.4077 25.3267 69.669 25.3267C69.1671 25.3267 68.7434 25.3977 68.3977 25.5398C68.0521 25.6771 67.7869 25.8688 67.6023 26.1151C67.4223 26.3613 67.3324 26.6406 67.3324 26.9531C67.3229 27.2135 67.3774 27.4408 67.4957 27.6349C67.6188 27.8291 67.7869 27.9972 68 28.1392C68.2131 28.2765 68.4593 28.3973 68.7386 28.5014C69.018 28.6009 69.3163 28.6861 69.6335 28.7571L70.9403 29.0696C71.5748 29.2116 72.1572 29.401 72.6875 29.6378C73.2178 29.8745 73.6771 30.1657 74.0653 30.5114C74.4536 30.857 74.7543 31.2642 74.9673 31.733C75.1851 32.2017 75.2964 32.7391 75.3011 33.3452C75.2964 34.2353 75.0691 35.0071 74.6193 35.6605C74.1742 36.3092 73.5303 36.8134 72.6875 37.1733C71.8494 37.5284 70.8385 37.706 69.6548 37.706C68.4806 37.706 67.4579 37.526 66.5866 37.1662C65.7202 36.8063 65.0431 36.2737 64.5554 35.5682C64.0724 34.858 63.8191 33.9796 63.7955 32.9332H66.7713C66.8045 33.4209 66.9441 33.8281 67.1903 34.1548C67.4413 34.4768 67.7751 34.7206 68.1918 34.8864C68.6132 35.0473 69.089 35.1278 69.6193 35.1278C70.1402 35.1278 70.5923 35.0521 70.9759 34.9006C71.3641 34.7491 71.6648 34.5384 71.8778 34.2685C72.0909 33.9986 72.1974 33.6884 72.1974 33.3381C72.1974 33.0114 72.1004 32.7367 71.9062 32.5142C71.7169 32.2917 71.4375 32.1023 71.0682 31.946C70.7036 31.7898 70.2562 31.6477 69.7259 31.5199L68.142 31.1222C66.9157 30.8239 65.9474 30.3575 65.2372 29.723C64.527 29.0885 64.1742 28.2339 64.179 27.1591C64.1742 26.2784 64.4086 25.509 64.8821 24.8509C65.3603 24.1927 66.0161 23.679 66.8494 23.3097C67.6828 22.9403 68.6297 22.7557 69.6903 22.7557C70.7699 22.7557 71.7121 22.9403 72.517 23.3097C73.3267 23.679 73.9564 24.1927 74.4062 24.8509C74.8561 25.509 75.0881 26.2713 75.1023 27.1378H72.1548ZM77.3129 37.5V26.5909H80.3384V37.5H77.3129ZM78.8327 25.1847C78.3829 25.1847 77.997 25.0355 77.6751 24.7372C77.3578 24.4342 77.1992 24.072 77.1992 23.6506C77.1992 23.2339 77.3578 22.8764 77.6751 22.5781C77.997 22.2751 78.3829 22.1236 78.8327 22.1236C79.2826 22.1236 79.6661 22.2751 79.9833 22.5781C80.3053 22.8764 80.4663 23.2339 80.4663 23.6506C80.4663 24.072 80.3053 24.4342 79.9833 24.7372C79.6661 25.0355 79.2826 25.1847 78.8327 25.1847ZM87.6768 41.8182C86.6967 41.8182 85.8563 41.6832 85.1555 41.4134C84.4595 41.1482 83.9055 40.786 83.4936 40.3267C83.0817 39.8674 82.8142 39.3513 82.6911 38.7784L85.4893 38.402C85.5746 38.6198 85.7095 38.8234 85.8942 39.0128C86.0788 39.2022 86.3227 39.3537 86.6257 39.4673C86.9335 39.5857 87.3075 39.6449 87.7479 39.6449C88.406 39.6449 88.9482 39.4839 89.3743 39.1619C89.8052 38.8447 90.0206 38.312 90.0206 37.5639V35.5682H89.8928C89.7602 35.8712 89.5613 36.1577 89.2962 36.4276C89.031 36.6974 88.6901 36.9176 88.2734 37.0881C87.8568 37.2585 87.3596 37.3438 86.782 37.3438C85.9628 37.3438 85.2171 37.1544 84.5447 36.7756C83.8771 36.392 83.3445 35.8073 82.9467 35.0213C82.5537 34.2306 82.3572 33.2315 82.3572 32.0241C82.3572 30.7884 82.5585 29.7562 82.9609 28.9276C83.3634 28.099 83.8984 27.4787 84.5661 27.0668C85.2384 26.6548 85.9747 26.4489 86.7749 26.4489C87.3857 26.4489 87.897 26.553 88.3089 26.7614C88.7209 26.965 89.0523 27.2206 89.3033 27.5284C89.5589 27.8314 89.7554 28.1297 89.8928 28.4233H90.0064V26.5909H93.0107V37.6065C93.0107 38.5346 92.7834 39.3111 92.3288 39.9361C91.8743 40.5611 91.2446 41.0298 90.4396 41.3423C89.6394 41.6596 88.7185 41.8182 87.6768 41.8182ZM87.7408 35.071C88.2285 35.071 88.6404 34.9503 88.9766 34.7088C89.3175 34.4626 89.5779 34.1122 89.7578 33.6577C89.9425 33.1984 90.0348 32.6491 90.0348 32.0099C90.0348 31.3707 89.9448 30.8168 89.7649 30.348C89.585 29.8745 89.3246 29.5076 88.9837 29.2472C88.6428 28.9867 88.2285 28.8565 87.7408 28.8565C87.2436 28.8565 86.8246 28.9915 86.4837 29.2614C86.1428 29.5265 85.8847 29.8958 85.7095 30.3693C85.5343 30.8428 85.4467 31.3897 85.4467 32.0099C85.4467 32.6397 85.5343 33.1842 85.7095 33.6435C85.8894 34.098 86.1475 34.4508 86.4837 34.7017C86.8246 34.9479 87.2436 35.071 87.7408 35.071ZM98.4439 31.1932V37.5H95.4183V26.5909H98.3018V28.5156H98.4297C98.6712 27.8812 99.076 27.3793 99.6442 27.0099C100.212 26.6359 100.901 26.4489 101.711 26.4489C102.469 26.4489 103.129 26.6146 103.692 26.946C104.256 27.2775 104.694 27.7509 105.006 28.3665C105.319 28.9773 105.475 29.7064 105.475 30.554V37.5H102.45V31.0938C102.454 30.4261 102.284 29.9053 101.938 29.5312C101.593 29.1525 101.117 28.9631 100.511 28.9631C100.103 28.9631 99.7436 29.0507 99.4311 29.2259C99.1233 29.401 98.8819 29.6567 98.7067 29.9929C98.5362 30.3243 98.4486 30.7244 98.4439 31.1932ZM119.484 32.8551V26.5909H122.51V37.5H119.605V35.5185H119.491C119.245 36.1577 118.836 36.6714 118.263 37.0597C117.695 37.4479 117.001 37.642 116.182 37.642C115.453 37.642 114.811 37.4763 114.257 37.1449C113.703 36.8134 113.27 36.3423 112.957 35.7315C112.65 35.1207 112.493 34.3892 112.489 33.5369V26.5909H115.514V32.9972C115.519 33.6411 115.692 34.1501 116.033 34.5241C116.374 34.8982 116.83 35.0852 117.403 35.0852C117.768 35.0852 118.109 35.0024 118.426 34.8366C118.743 34.6662 118.999 34.4152 119.193 34.0838C119.392 33.7524 119.489 33.3428 119.484 32.8551ZM124.93 41.5909V26.5909H127.913V28.4233H128.048C128.181 28.1297 128.372 27.8314 128.623 27.5284C128.879 27.2206 129.21 26.965 129.618 26.7614C130.029 26.553 130.541 26.4489 131.152 26.4489C131.947 26.4489 132.681 26.6572 133.353 27.0739C134.026 27.4858 134.563 28.1084 134.966 28.9418C135.368 29.7704 135.569 30.8097 135.569 32.0597C135.569 33.2765 135.373 34.304 134.98 35.142C134.592 35.9754 134.061 36.6075 133.389 37.0384C132.721 37.4645 131.973 37.6776 131.145 37.6776C130.557 37.6776 130.058 37.5805 129.646 37.3864C129.239 37.1922 128.905 36.9484 128.645 36.6548C128.384 36.3565 128.185 36.0559 128.048 35.7528H127.956V41.5909H124.93ZM127.892 32.0455C127.892 32.6941 127.982 33.2599 128.162 33.7429C128.342 34.2259 128.602 34.6023 128.943 34.8722C129.284 35.1373 129.698 35.2699 130.186 35.2699C130.678 35.2699 131.095 35.1349 131.436 34.8651C131.777 34.5904 132.035 34.2116 132.21 33.7287C132.39 33.241 132.48 32.6799 132.48 32.0455C132.48 31.4157 132.392 30.8617 132.217 30.3835C132.042 29.9053 131.784 29.5312 131.443 29.2614C131.102 28.9915 130.683 28.8565 130.186 28.8565C129.693 28.8565 129.277 28.9867 128.936 29.2472C128.6 29.5076 128.342 29.8769 128.162 30.3551C127.982 30.8333 127.892 31.3968 127.892 32.0455ZM144.367 37.5L141.398 26.5909H144.46L146.15 33.9205H146.249L148.011 26.5909H151.015L152.805 33.8778H152.897L154.559 26.5909H157.613L154.651 37.5H151.448L149.573 30.6392H149.438L147.563 37.5H144.367ZM159.227 37.5V26.5909H162.252V37.5H159.227ZM160.747 25.1847C160.297 25.1847 159.911 25.0355 159.589 24.7372C159.272 24.4342 159.113 24.072 159.113 23.6506C159.113 23.2339 159.272 22.8764 159.589 22.5781C159.911 22.2751 160.297 22.1236 160.747 22.1236C161.197 22.1236 161.58 22.2751 161.897 22.5781C162.219 22.8764 162.38 23.2339 162.38 23.6506C162.38 24.072 162.219 24.4342 161.897 24.7372C161.58 25.0355 161.197 25.1847 160.747 25.1847ZM170.479 26.5909V28.8636H163.909V26.5909H170.479ZM165.401 23.9773H168.426V34.1477C168.426 34.4271 168.469 34.6449 168.554 34.8011C168.639 34.9527 168.758 35.0592 168.909 35.1207C169.065 35.1823 169.245 35.2131 169.449 35.2131C169.591 35.2131 169.733 35.2012 169.875 35.1776C170.017 35.1491 170.126 35.1278 170.202 35.1136L170.678 37.3651C170.526 37.4124 170.313 37.4669 170.038 37.5284C169.764 37.5947 169.43 37.6349 169.037 37.6491C168.308 37.6776 167.669 37.5805 167.119 37.358C166.575 37.1354 166.151 36.7898 165.848 36.321C165.545 35.8523 165.396 35.2604 165.401 34.5455V23.9773ZM175.71 31.1932V37.5H172.684V22.9545H175.624V28.5156H175.752C175.998 27.8717 176.396 27.3674 176.945 27.0028C177.495 26.6335 178.183 26.4489 179.012 26.4489C179.77 26.4489 180.43 26.6146 180.994 26.946C181.562 27.2727 182.002 27.7438 182.315 28.3594C182.632 28.9702 182.788 29.7017 182.783 30.554V37.5H179.758V31.0938C179.763 30.4214 179.592 29.8982 179.246 29.5241C178.906 29.1501 178.427 28.9631 177.812 28.9631C177.4 28.9631 177.035 29.0507 176.718 29.2259C176.406 29.401 176.159 29.6567 175.979 29.9929C175.804 30.3243 175.714 30.7244 175.71 31.1932ZM189.85 37.5V22.9545H199.481V25.4901H192.925V28.956H198.842V31.4915H192.925V37.5H189.85ZM204.467 37.706C203.771 37.706 203.15 37.5852 202.606 37.3438C202.061 37.0975 201.63 36.7353 201.313 36.2571C201.001 35.7741 200.844 35.1728 200.844 34.4531C200.844 33.8471 200.956 33.3381 201.178 32.9261C201.401 32.5142 201.704 32.1828 202.087 31.9318C202.471 31.6809 202.906 31.4915 203.394 31.3636C203.887 31.2358 204.403 31.1458 204.942 31.0938C205.577 31.0275 206.088 30.9659 206.477 30.9091C206.865 30.8475 207.147 30.7576 207.322 30.6392C207.497 30.5208 207.585 30.3456 207.585 30.1136V30.071C207.585 29.6212 207.442 29.2732 207.158 29.027C206.879 28.7808 206.481 28.6577 205.965 28.6577C205.421 28.6577 204.987 28.7784 204.665 29.0199C204.344 29.2566 204.13 29.5549 204.026 29.9148L201.228 29.6875C201.37 29.0246 201.649 28.4517 202.066 27.9688C202.483 27.4811 203.02 27.107 203.678 26.8466C204.341 26.5814 205.108 26.4489 205.979 26.4489C206.585 26.4489 207.165 26.5199 207.719 26.6619C208.278 26.804 208.773 27.0241 209.204 27.3224C209.639 27.6207 209.983 28.0043 210.234 28.473C210.485 28.937 210.61 29.4934 210.61 30.142V37.5H207.741V35.9872H207.656C207.48 36.3281 207.246 36.6288 206.952 36.8892C206.659 37.1449 206.306 37.3461 205.894 37.4929C205.482 37.6349 205.006 37.706 204.467 37.706ZM205.333 35.6179C205.778 35.6179 206.171 35.5303 206.512 35.3551C206.853 35.1752 207.121 34.9337 207.315 34.6307C207.509 34.3277 207.606 33.9844 207.606 33.6009V32.4432C207.511 32.5047 207.381 32.5616 207.215 32.6136C207.054 32.661 206.872 32.706 206.668 32.7486C206.465 32.7865 206.261 32.822 206.058 32.8551C205.854 32.8835 205.669 32.9096 205.504 32.9332C205.148 32.9853 204.838 33.0682 204.573 33.1818C204.308 33.2955 204.102 33.4493 203.955 33.6435C203.808 33.8329 203.735 34.0696 203.735 34.3537C203.735 34.7656 203.884 35.0805 204.183 35.2983C204.486 35.5114 204.869 35.6179 205.333 35.6179ZM217.886 37.7131C216.769 37.7131 215.808 37.4763 215.003 37.0028C214.203 36.5246 213.587 35.8617 213.156 35.0142C212.73 34.1667 212.517 33.1913 212.517 32.0881C212.517 30.9706 212.732 29.9905 213.163 29.1477C213.599 28.3002 214.217 27.6397 215.017 27.1662C215.817 26.688 216.769 26.4489 217.872 26.4489C218.824 26.4489 219.657 26.6217 220.372 26.9673C221.087 27.313 221.653 27.7983 222.07 28.4233C222.486 29.0483 222.716 29.7822 222.759 30.625H219.903C219.823 30.0805 219.61 29.6425 219.264 29.3111C218.923 28.9749 218.476 28.8068 217.922 28.8068C217.453 28.8068 217.044 28.9347 216.693 29.1903C216.348 29.4413 216.078 29.8082 215.884 30.2912C215.689 30.7741 215.592 31.3589 215.592 32.0455C215.592 32.7415 215.687 33.3333 215.876 33.821C216.071 34.3087 216.343 34.6804 216.693 34.9361C217.044 35.1918 217.453 35.3196 217.922 35.3196C218.268 35.3196 218.578 35.2486 218.852 35.1065C219.132 34.9645 219.361 34.7585 219.541 34.4886C219.726 34.214 219.847 33.8849 219.903 33.5014H222.759C222.711 34.3348 222.484 35.0687 222.077 35.7031C221.674 36.3329 221.118 36.8253 220.408 37.1804C219.697 37.5355 218.857 37.7131 217.886 37.7131ZM229.667 37.7131C228.545 37.7131 227.579 37.4858 226.77 37.0312C225.965 36.572 225.344 35.9233 224.909 35.0852C224.473 34.2424 224.255 33.2457 224.255 32.0952C224.255 30.973 224.473 29.9882 224.909 29.1406C225.344 28.2931 225.958 27.6326 226.748 27.1591C227.544 26.6856 228.476 26.4489 229.547 26.4489C230.266 26.4489 230.936 26.5649 231.556 26.7969C232.181 27.0241 232.726 27.3674 233.19 27.8267C233.659 28.286 234.023 28.8636 234.284 29.5597C234.544 30.2509 234.674 31.0606 234.674 31.9886V32.8196H225.463V30.9446H231.826C231.826 30.509 231.732 30.1231 231.542 29.7869C231.353 29.4508 231.09 29.188 230.754 28.9986C230.422 28.8045 230.037 28.7074 229.596 28.7074C229.137 28.7074 228.73 28.8139 228.375 29.027C228.024 29.2353 227.75 29.517 227.551 29.8722C227.352 30.2225 227.25 30.6132 227.245 31.044V32.8267C227.245 33.3665 227.345 33.8329 227.544 34.2259C227.747 34.6188 228.034 34.9219 228.403 35.1349C228.772 35.348 229.21 35.4545 229.717 35.4545C230.053 35.4545 230.361 35.4072 230.64 35.3125C230.92 35.2178 231.159 35.0758 231.358 34.8864C231.556 34.697 231.708 34.465 231.812 34.1903L234.61 34.375C234.468 35.0473 234.177 35.6345 233.737 36.1364C233.301 36.6335 232.738 37.0218 232.047 37.3011C231.36 37.5758 230.567 37.7131 229.667 37.7131ZM236.706 37.5V22.9545H239.731V28.4233H239.824C239.956 28.1297 240.148 27.8314 240.399 27.5284C240.654 27.2206 240.986 26.965 241.393 26.7614C241.805 26.553 242.316 26.4489 242.927 26.4489C243.723 26.4489 244.457 26.6572 245.129 27.0739C245.801 27.4858 246.339 28.1084 246.741 28.9418C247.144 29.7704 247.345 30.8097 247.345 32.0597C247.345 33.2765 247.148 34.304 246.755 35.142C246.367 35.9754 245.837 36.6075 245.164 37.0384C244.497 37.4645 243.749 37.6776 242.92 37.6776C242.333 37.6776 241.833 37.5805 241.422 37.3864C241.014 37.1922 240.681 36.9484 240.42 36.6548C240.16 36.3565 239.961 36.0559 239.824 35.7528H239.689V37.5H236.706ZM239.667 32.0455C239.667 32.6941 239.757 33.2599 239.937 33.7429C240.117 34.2259 240.377 34.6023 240.718 34.8722C241.059 35.1373 241.474 35.2699 241.961 35.2699C242.454 35.2699 242.87 35.1349 243.211 34.8651C243.552 34.5904 243.81 34.2116 243.985 33.7287C244.165 33.241 244.255 32.6799 244.255 32.0455C244.255 31.4157 244.168 30.8617 243.993 30.3835C243.817 29.9053 243.559 29.5312 243.218 29.2614C242.877 28.9915 242.458 28.8565 241.961 28.8565C241.469 28.8565 241.052 28.9867 240.711 29.2472C240.375 29.5076 240.117 29.8769 239.937 30.3551C239.757 30.8333 239.667 31.3968 239.667 32.0455ZM254.293 37.7131C253.189 37.7131 252.235 37.4787 251.43 37.0099C250.63 36.5365 250.012 35.8783 249.577 35.0355C249.141 34.188 248.923 33.2055 248.923 32.0881C248.923 30.9612 249.141 29.9763 249.577 29.1335C250.012 28.286 250.63 27.6278 251.43 27.1591C252.235 26.6856 253.189 26.4489 254.293 26.4489C255.396 26.4489 256.348 26.6856 257.148 27.1591C257.953 27.6278 258.573 28.286 259.009 29.1335C259.444 29.9763 259.662 30.9612 259.662 32.0881C259.662 33.2055 259.444 34.188 259.009 35.0355C258.573 35.8783 257.953 36.5365 257.148 37.0099C256.348 37.4787 255.396 37.7131 254.293 37.7131ZM254.307 35.3693C254.809 35.3693 255.228 35.2273 255.564 34.9432C255.9 34.6544 256.153 34.2614 256.324 33.7642C256.499 33.267 256.587 32.7012 256.587 32.0668C256.587 31.4323 256.499 30.8665 256.324 30.3693C256.153 29.8722 255.9 29.4792 255.564 29.1903C255.228 28.9015 254.809 28.7571 254.307 28.7571C253.8 28.7571 253.374 28.9015 253.028 29.1903C252.688 29.4792 252.429 29.8722 252.254 30.3693C252.084 30.8665 251.999 31.4323 251.999 32.0668C251.999 32.7012 252.084 33.267 252.254 33.7642C252.429 34.2614 252.688 34.6544 253.028 34.9432C253.374 35.2273 253.8 35.3693 254.307 35.3693ZM266.558 37.7131C265.455 37.7131 264.501 37.4787 263.696 37.0099C262.896 36.5365 262.278 35.8783 261.842 35.0355C261.407 34.188 261.189 33.2055 261.189 32.0881C261.189 30.9612 261.407 29.9763 261.842 29.1335C262.278 28.286 262.896 27.6278 263.696 27.1591C264.501 26.6856 265.455 26.4489 266.558 26.4489C267.661 26.4489 268.613 26.6856 269.413 27.1591C270.218 27.6278 270.839 28.286 271.274 29.1335C271.71 29.9763 271.928 30.9612 271.928 32.0881C271.928 33.2055 271.71 34.188 271.274 35.0355C270.839 35.8783 270.218 36.5365 269.413 37.0099C268.613 37.4787 267.661 37.7131 266.558 37.7131ZM266.572 35.3693C267.074 35.3693 267.493 35.2273 267.83 34.9432C268.166 34.6544 268.419 34.2614 268.589 33.7642C268.765 33.267 268.852 32.7012 268.852 32.0668C268.852 31.4323 268.765 30.8665 268.589 30.3693C268.419 29.8722 268.166 29.4792 267.83 29.1903C267.493 28.9015 267.074 28.7571 266.572 28.7571C266.066 28.7571 265.64 28.9015 265.294 29.1903C264.953 29.4792 264.695 29.8722 264.52 30.3693C264.349 30.8665 264.264 31.4323 264.264 32.0668C264.264 32.7012 264.349 33.267 264.52 33.7642C264.695 34.2614 264.953 34.6544 265.294 34.9432C265.64 35.2273 266.066 35.3693 266.572 35.3693ZM276.636 34.3608L276.643 30.7315H277.084L280.578 26.5909H284.051L279.357 32.0739H278.639L276.636 34.3608ZM273.895 37.5V22.9545H276.92V37.5H273.895ZM280.713 37.5L277.503 32.7486L279.52 30.6108L284.257 37.5H280.713Z" fill="white"/>
</svg>
