<svg width="338" height="61" viewBox="0 0 338 61" fill="none" xmlns="http://www.w3.org/2000/svg">
<rect width="337.999" height="60.999" fill="#0A66C2"/>
<path d="M24 20.6475C24 19.7381 24.7613 19 25.6998 19H45.2993C46.2381 19 46.999 19.7381 46.999 20.6475V40.3518C46.999 41.2614 46.2381 41.999 45.2993 41.999H25.6998C24.7614 41.999 24 41.2615 24 40.3521V20.6472V20.6475Z" fill="white"/>
<path d="M30.9901 38.2469V27.8927H27.5486V38.2469H30.9905H30.9901ZM29.2701 26.4792C30.47 26.4792 31.217 25.6842 31.217 24.6905C31.1945 23.6743 30.47 22.9014 29.2929 22.9014C28.115 22.9014 27.3457 23.6743 27.3457 24.6904C27.3457 25.6841 28.0925 26.4792 29.2475 26.4792H29.2698L29.2701 26.4792ZM32.8951 38.2469H36.3364V32.4653C36.3364 32.1562 36.3589 31.8464 36.4498 31.6256C36.6985 31.0071 37.2648 30.3668 38.2157 30.3668C39.4607 30.3668 39.9591 31.3162 39.9591 32.7083V38.2469H43.4003V32.3101C43.4003 29.1299 41.7027 27.6499 39.4384 27.6499C37.5821 27.6499 36.7668 28.6875 36.3138 29.3942H36.3367V27.8931H32.8953C32.9402 28.8644 32.895 38.2473 32.895 38.2473L32.8951 38.2469Z" fill="#0A66C2"/>
<path d="M72.1529 27.1378C72.0961 26.5649 71.8522 26.1198 71.4213 25.8026C70.9905 25.4853 70.4057 25.3267 69.6671 25.3267C69.1652 25.3267 68.7414 25.3977 68.3958 25.5398C68.0501 25.6771 67.785 25.8688 67.6003 26.1151C67.4204 26.3613 67.3304 26.6406 67.3304 26.9531C67.321 27.2135 67.3754 27.4408 67.4938 27.6349C67.6169 27.8291 67.785 27.9972 67.998 28.1392C68.2111 28.2765 68.4573 28.3973 68.7367 28.5014C69.016 28.6009 69.3143 28.6861 69.6316 28.7571L70.9384 29.0696C71.5729 29.2116 72.1552 29.401 72.6855 29.6378C73.2159 29.8745 73.6751 30.1657 74.0634 30.5114C74.4516 30.857 74.7523 31.2642 74.9654 31.733C75.1832 32.2017 75.2944 32.7391 75.2992 33.3452C75.2944 34.2353 75.0672 35.0071 74.6174 35.6605C74.1723 36.3092 73.5284 36.8134 72.6855 37.1733C71.8475 37.5284 70.8366 37.706 69.6529 37.706C68.4786 37.706 67.4559 37.526 66.5847 37.1662C65.7182 36.8063 65.0411 36.2737 64.5534 35.5682C64.0705 34.858 63.8172 33.9796 63.7935 32.9332H66.7694C66.8025 33.4209 66.9422 33.8281 67.1884 34.1548C67.4393 34.4768 67.7731 34.7206 68.1898 34.8864C68.6112 35.0473 69.0871 35.1278 69.6174 35.1278C70.1382 35.1278 70.5904 35.0521 70.9739 34.9006C71.3622 34.7491 71.6628 34.5384 71.8759 34.2685C72.089 33.9986 72.1955 33.6884 72.1955 33.3381C72.1955 33.0114 72.0984 32.7367 71.9043 32.5142C71.7149 32.2917 71.4355 32.1023 71.0662 31.946C70.7016 31.7898 70.2542 31.6477 69.7239 31.5199L68.1401 31.1222C66.9138 30.8239 65.9455 30.3575 65.2353 29.723C64.525 29.0885 64.1723 28.2339 64.177 27.1591C64.1723 26.2784 64.4067 25.509 64.8801 24.8509C65.3584 24.1927 66.0141 23.679 66.8475 23.3097C67.6808 22.9403 68.6278 22.7557 69.6884 22.7557C70.7679 22.7557 71.7102 22.9403 72.5151 23.3097C73.3248 23.679 73.9545 24.1927 74.4043 24.8509C74.8541 25.509 75.0861 26.2713 75.1003 27.1378H72.1529ZM77.3109 37.5V26.5909H80.3365V37.5H77.3109ZM78.8308 25.1847C78.381 25.1847 77.9951 25.0355 77.6731 24.7372C77.3559 24.4342 77.1973 24.072 77.1973 23.6506C77.1973 23.2339 77.3559 22.8764 77.6731 22.5781C77.9951 22.2751 78.381 22.1236 78.8308 22.1236C79.2806 22.1236 79.6641 22.2751 79.9814 22.5781C80.3033 22.8764 80.4643 23.2339 80.4643 23.6506C80.4643 24.072 80.3033 24.4342 79.9814 24.7372C79.6641 25.0355 79.2806 25.1847 78.8308 25.1847ZM87.6749 41.8182C86.6948 41.8182 85.8543 41.6832 85.1536 41.4134C84.4576 41.1482 83.9036 40.786 83.4917 40.3267C83.0797 39.8674 82.8122 39.3513 82.6891 38.7784L85.4874 38.402C85.5726 38.6198 85.7076 38.8234 85.8922 39.0128C86.0769 39.2022 86.3207 39.3537 86.6238 39.4673C86.9315 39.5857 87.3056 39.6449 87.7459 39.6449C88.4041 39.6449 88.9462 39.4839 89.3723 39.1619C89.8032 38.8447 90.0186 38.312 90.0186 37.5639V35.5682H89.8908C89.7582 35.8712 89.5594 36.1577 89.2942 36.4276C89.0291 36.6974 88.6882 36.9176 88.2715 37.0881C87.8548 37.2585 87.3577 37.3438 86.78 37.3438C85.9609 37.3438 85.2151 37.1544 84.5428 36.7756C83.8752 36.392 83.3425 35.8073 82.9448 35.0213C82.5518 34.2306 82.3553 33.2315 82.3553 32.0241C82.3553 30.7884 82.5565 29.7562 82.959 28.9276C83.3614 28.099 83.8965 27.4787 84.5641 27.0668C85.2364 26.6548 85.9727 26.4489 86.7729 26.4489C87.3837 26.4489 87.8951 26.553 88.307 26.7614C88.7189 26.965 89.0504 27.2206 89.3013 27.5284C89.557 27.8314 89.7535 28.1297 89.8908 28.4233H90.0044V26.5909H93.0087V37.6065C93.0087 38.5346 92.7814 39.3111 92.3269 39.9361C91.8723 40.5611 91.2426 41.0298 90.4377 41.3423C89.6375 41.6596 88.7166 41.8182 87.6749 41.8182ZM87.7388 35.071C88.2265 35.071 88.6384 34.9503 88.9746 34.7088C89.3155 34.4626 89.5759 34.1122 89.7559 33.6577C89.9405 33.1984 90.0328 32.6491 90.0328 32.0099C90.0328 31.3707 89.9429 30.8168 89.763 30.348C89.583 29.8745 89.3226 29.5076 88.9817 29.2472C88.6408 28.9867 88.2265 28.8565 87.7388 28.8565C87.2417 28.8565 86.8226 28.9915 86.4817 29.2614C86.1408 29.5265 85.8828 29.8958 85.7076 30.3693C85.5324 30.8428 85.4448 31.3897 85.4448 32.0099C85.4448 32.6397 85.5324 33.1842 85.7076 33.6435C85.8875 34.098 86.1455 34.4508 86.4817 34.7017C86.8226 34.9479 87.2417 35.071 87.7388 35.071ZM98.4419 31.1932V37.5H95.4164V26.5909H98.2999V28.5156H98.4277C98.6692 27.8812 99.074 27.3793 99.6422 27.0099C100.21 26.6359 100.899 26.4489 101.709 26.4489C102.467 26.4489 103.127 26.6146 103.691 26.946C104.254 27.2775 104.692 27.7509 105.004 28.3665C105.317 28.9773 105.473 29.7064 105.473 30.554V37.5H102.448V31.0938C102.452 30.4261 102.282 29.9053 101.936 29.5312C101.591 29.1525 101.115 28.9631 100.509 28.9631C100.102 28.9631 99.7417 29.0507 99.4292 29.2259C99.1214 29.401 98.8799 29.6567 98.7047 29.9929C98.5343 30.3243 98.4467 30.7244 98.4419 31.1932ZM119.482 32.8551V26.5909H122.508V37.5H119.603V35.5185H119.49C119.243 36.1577 118.834 36.6714 118.261 37.0597C117.693 37.4479 116.999 37.642 116.18 37.642C115.451 37.642 114.809 37.4763 114.255 37.1449C113.701 36.8134 113.268 36.3423 112.955 35.7315C112.648 35.1207 112.491 34.3892 112.487 33.5369V26.5909H115.512V32.9972C115.517 33.6411 115.69 34.1501 116.031 34.5241C116.372 34.8982 116.829 35.0852 117.401 35.0852C117.766 35.0852 118.107 35.0024 118.424 34.8366C118.741 34.6662 118.997 34.4152 119.191 34.0838C119.39 33.7524 119.487 33.3428 119.482 32.8551ZM124.928 41.5909V26.5909H127.911V28.4233H128.046C128.179 28.1297 128.37 27.8314 128.621 27.5284C128.877 27.2206 129.208 26.965 129.616 26.7614C130.028 26.553 130.539 26.4489 131.15 26.4489C131.945 26.4489 132.679 26.6572 133.351 27.0739C134.024 27.4858 134.561 28.1084 134.964 28.9418C135.366 29.7704 135.567 30.8097 135.567 32.0597C135.567 33.2765 135.371 34.304 134.978 35.142C134.59 35.9754 134.059 36.6075 133.387 37.0384C132.719 37.4645 131.971 37.6776 131.143 37.6776C130.555 37.6776 130.056 37.5805 129.644 37.3864C129.237 37.1922 128.903 36.9484 128.643 36.6548C128.382 36.3565 128.183 36.0559 128.046 35.7528H127.954V41.5909H124.928ZM127.89 32.0455C127.89 32.6941 127.98 33.2599 128.16 33.7429C128.34 34.2259 128.6 34.6023 128.941 34.8722C129.282 35.1373 129.696 35.2699 130.184 35.2699C130.676 35.2699 131.093 35.1349 131.434 34.8651C131.775 34.5904 132.033 34.2116 132.208 33.7287C132.388 33.241 132.478 32.6799 132.478 32.0455C132.478 31.4157 132.39 30.8617 132.215 30.3835C132.04 29.9053 131.782 29.5312 131.441 29.2614C131.1 28.9915 130.681 28.8565 130.184 28.8565C129.691 28.8565 129.275 28.9867 128.934 29.2472C128.598 29.5076 128.34 29.8769 128.16 30.3551C127.98 30.8333 127.89 31.3968 127.89 32.0455ZM144.365 37.5L141.396 26.5909H144.458L146.148 33.9205H146.247L148.009 26.5909H151.013L152.803 33.8778H152.895L154.557 26.5909H157.611L154.649 37.5H151.446L149.571 30.6392H149.436L147.561 37.5H144.365ZM159.225 37.5V26.5909H162.251V37.5H159.225ZM160.745 25.1847C160.295 25.1847 159.909 25.0355 159.587 24.7372C159.27 24.4342 159.111 24.072 159.111 23.6506C159.111 23.2339 159.27 22.8764 159.587 22.5781C159.909 22.2751 160.295 22.1236 160.745 22.1236C161.195 22.1236 161.578 22.2751 161.895 22.5781C162.217 22.8764 162.378 23.2339 162.378 23.6506C162.378 24.072 162.217 24.4342 161.895 24.7372C161.578 25.0355 161.195 25.1847 160.745 25.1847ZM170.477 26.5909V28.8636H163.907V26.5909H170.477ZM165.399 23.9773H168.424V34.1477C168.424 34.4271 168.467 34.6449 168.552 34.8011C168.637 34.9527 168.756 35.0592 168.907 35.1207C169.063 35.1823 169.243 35.2131 169.447 35.2131C169.589 35.2131 169.731 35.2012 169.873 35.1776C170.015 35.1491 170.124 35.1278 170.2 35.1136L170.676 37.3651C170.524 37.4124 170.311 37.4669 170.036 37.5284C169.762 37.5947 169.428 37.6349 169.035 37.6491C168.306 37.6776 167.667 37.5805 167.117 37.358C166.573 37.1354 166.149 36.7898 165.846 36.321C165.543 35.8523 165.394 35.2604 165.399 34.5455V23.9773ZM175.708 31.1932V37.5H172.682V22.9545H175.622V28.5156H175.75C175.996 27.8717 176.394 27.3674 176.943 27.0028C177.493 26.6335 178.182 26.4489 179.01 26.4489C179.768 26.4489 180.428 26.6146 180.992 26.946C181.56 27.2727 182 27.7438 182.313 28.3594C182.63 28.9702 182.786 29.7017 182.781 30.554V37.5H179.756V31.0938C179.761 30.4214 179.59 29.8982 179.244 29.5241C178.904 29.1501 178.425 28.9631 177.81 28.9631C177.398 28.9631 177.033 29.0507 176.716 29.2259C176.404 29.401 176.157 29.6567 175.977 29.9929C175.802 30.3243 175.712 30.7244 175.708 31.1932ZM189.848 37.5V22.9545H192.923V34.9645H199.159V37.5H189.848ZM201.139 37.5V26.5909H204.165V37.5H201.139ZM202.659 25.1847C202.209 25.1847 201.823 25.0355 201.501 24.7372C201.184 24.4342 201.025 24.072 201.025 23.6506C201.025 23.2339 201.184 22.8764 201.501 22.5781C201.823 22.2751 202.209 22.1236 202.659 22.1236C203.109 22.1236 203.492 22.2751 203.809 22.5781C204.131 22.8764 204.292 23.2339 204.292 23.6506C204.292 24.072 204.131 24.4342 203.809 24.7372C203.492 25.0355 203.109 25.1847 202.659 25.1847ZM209.614 31.1932V37.5H206.588V26.5909H209.472V28.5156H209.6C209.841 27.8812 210.246 27.3793 210.814 27.0099C211.382 26.6359 212.071 26.4489 212.881 26.4489C213.638 26.4489 214.299 26.6146 214.862 26.946C215.426 27.2775 215.864 27.7509 216.176 28.3665C216.489 28.9773 216.645 29.7064 216.645 30.554V37.5H213.619V31.0938C213.624 30.4261 213.454 29.9053 213.108 29.5312C212.762 29.1525 212.287 28.9631 211.681 28.9631C211.273 28.9631 210.914 29.0507 210.601 29.2259C210.293 29.401 210.052 29.6567 209.877 29.9929C209.706 30.3243 209.619 30.7244 209.614 31.1932ZM221.771 34.3608L221.778 30.7315H222.219L225.713 26.5909H229.186L224.491 32.0739H223.774L221.771 34.3608ZM219.03 37.5V22.9545H222.055V37.5H219.03ZM225.848 37.5L222.638 32.7486L224.655 30.6108L229.392 37.5H225.848ZM235.193 37.7131C234.07 37.7131 233.105 37.4858 232.295 37.0312C231.49 36.572 230.87 35.9233 230.434 35.0852C229.999 34.2424 229.781 33.2457 229.781 32.0952C229.781 30.973 229.999 29.9882 230.434 29.1406C230.87 28.2931 231.483 27.6326 232.274 27.1591C233.069 26.6856 234.002 26.4489 235.072 26.4489C235.792 26.4489 236.462 26.5649 237.082 26.7969C237.707 27.0241 238.251 27.3674 238.715 27.8267C239.184 28.286 239.549 28.8636 239.809 29.5597C240.07 30.2509 240.2 31.0606 240.2 31.9886V32.8196H230.988V30.9446H237.352C237.352 30.509 237.257 30.1231 237.068 29.7869C236.878 29.4508 236.615 29.188 236.279 28.9986C235.948 28.8045 235.562 28.7074 235.122 28.7074C234.662 28.7074 234.255 28.8139 233.9 29.027C233.55 29.2353 233.275 29.517 233.076 29.8722C232.877 30.2225 232.776 30.6132 232.771 31.044V32.8267C232.771 33.3665 232.87 33.8329 233.069 34.2259C233.273 34.6188 233.559 34.9219 233.928 35.1349C234.298 35.348 234.736 35.4545 235.242 35.4545C235.579 35.4545 235.886 35.4072 236.166 35.3125C236.445 35.2178 236.684 35.0758 236.883 34.8864C237.082 34.697 237.233 34.465 237.338 34.1903L240.136 34.375C239.994 35.0473 239.703 35.6345 239.262 36.1364C238.827 36.6335 238.263 37.0218 237.572 37.3011C236.885 37.5758 236.092 37.7131 235.193 37.7131ZM246.194 37.6776C245.365 37.6776 244.615 37.4645 243.943 37.0384C243.275 36.6075 242.745 35.9754 242.352 35.142C241.963 34.304 241.769 33.2765 241.769 32.0597C241.769 30.8097 241.971 29.7704 242.373 28.9418C242.776 28.1084 243.311 27.4858 243.978 27.0739C244.651 26.6572 245.387 26.4489 246.187 26.4489C246.798 26.4489 247.307 26.553 247.714 26.7614C248.126 26.965 248.457 27.2206 248.708 27.5284C248.964 27.8314 249.158 28.1297 249.291 28.4233H249.383V22.9545H252.401V37.5H249.419V35.7528H249.291C249.149 36.0559 248.947 36.3565 248.687 36.6548C248.431 36.9484 248.097 37.1922 247.686 37.3864C247.278 37.5805 246.781 37.6776 246.194 37.6776ZM247.153 35.2699C247.641 35.2699 248.052 35.1373 248.389 34.8722C248.73 34.6023 248.99 34.2259 249.17 33.7429C249.355 33.2599 249.447 32.6941 249.447 32.0455C249.447 31.3968 249.357 30.8333 249.177 30.3551C248.997 29.8769 248.737 29.5076 248.396 29.2472C248.055 28.9867 247.641 28.8565 247.153 28.8565C246.656 28.8565 246.237 28.9915 245.896 29.2614C245.555 29.5312 245.297 29.9053 245.122 30.3835C244.946 30.8617 244.859 31.4157 244.859 32.0455C244.859 32.6799 244.946 33.241 245.122 33.7287C245.302 34.2116 245.56 34.5904 245.896 34.8651C246.237 35.1349 246.656 35.2699 247.153 35.2699ZM258.021 22.9545V37.5H254.946V22.9545H258.021ZM263.52 31.1932V37.5H260.494V26.5909H263.378V28.5156H263.506C263.747 27.8812 264.152 27.3793 264.72 27.0099C265.289 26.6359 265.977 26.4489 266.787 26.4489C267.545 26.4489 268.205 26.6146 268.769 26.946C269.332 27.2775 269.77 27.7509 270.083 28.3665C270.395 28.9773 270.551 29.7064 270.551 30.554V37.5H267.526V31.0938C267.53 30.4261 267.36 29.9053 267.014 29.5312C266.669 29.1525 266.193 28.9631 265.587 28.9631C265.18 28.9631 264.82 29.0507 264.507 29.2259C264.2 29.401 263.958 29.6567 263.783 29.9929C263.612 30.3243 263.525 30.7244 263.52 31.1932Z" fill="white"/>
</svg>
