<svg width="25" height="25" viewBox="0 0 25 25" fill="none" xmlns="http://www.w3.org/2000/svg">
<path d="M2.94949 5.89898C4.57845 5.89898 5.89898 4.57845 5.89898 2.94949C5.89898 1.32053 4.57845 0 2.94949 0C1.32053 0 0 1.32053 0 2.94949C0 4.57845 1.32053 5.89898 2.94949 5.89898Z" fill="white"/>
<path d="M8.60022 8.07874H13.4885V10.3181C13.4885 10.3181 14.815 7.66509 18.4242 7.66509C21.6437 7.66509 24.3108 9.25112 24.3108 14.0855V24.2798H19.2452V15.3208C19.2452 12.4689 17.7227 12.1553 16.5625 12.1553C14.1547 12.1553 13.7425 14.2321 13.7425 15.6928V24.2798H8.60022V8.07874Z" fill="white"/>
<path d="M0.378345 8.07876H5.52065V24.2798H0.378345V8.07876Z" fill="white"/>
</svg>
